<svg width="72" height="72" viewBox="0 0 72 72" fill="none" xmlns="http://www.w3.org/2000/svg">
<path d="M70.4102 20.7044L50.9384 1.27309C50.1175 0.453885 49.0248 0 47.8627 0C46.7007 0 45.608 0.451118 44.7843 1.27309L28.4547 17.5687L1.27297 44.6939C-0.424325 46.3876 -0.424325 49.1414 1.27297 50.8351L20.7448 70.272C21.5657 71.0912 22.6584 71.5451 23.8232 71.5451C24.988 71.5451 26.0779 71.0939 26.9016 70.272L51.2629 45.9559L70.4102 26.8457C72.1075 25.1519 72.1075 22.3981 70.4102 20.7044Z" fill="white"/>
<path d="M69.0346 22.0854L49.5601 2.6541C48.6227 1.71865 47.1001 1.71865 46.1599 2.6541L25.1073 23.6657L47.9792 46.49L69.0346 25.4784C69.972 24.543 69.972 23.0236 69.0346 22.0854ZM51.9091 27.7036C50.8081 28.8023 49.3576 29.3503 47.921 29.3503C46.4788 29.3503 45.0339 28.8023 43.9329 27.7036C42.8346 26.6048 42.28 25.1629 42.28 23.7238C42.28 22.2819 42.8346 20.84 43.9329 19.744C45.0367 18.6453 46.4788 18.0917 47.921 18.0917C49.3604 18.0917 50.8081 18.6397 51.9091 19.744C53.0073 20.84 53.562 22.2846 53.562 23.7238C53.562 25.1602 53.0073 26.6048 51.9091 27.7036Z" fill="#E31837"/>
<path d="M2.65129 46.0666C1.71112 47.0048 1.71112 48.5214 2.65129 49.4596L22.1231 68.8965C22.5918 69.3642 23.2075 69.5994 23.8232 69.5994C24.4388 69.5994 25.0545 69.3642 25.5232 68.8965L46.5675 47.8932L23.6956 25.0688L2.65129 46.0666ZM19.5133 51.6654C18.4095 52.7586 16.9646 53.3094 15.5225 53.3094C14.0776 53.3094 12.6354 52.7614 11.5316 51.6654C10.4278 50.5694 9.88146 49.1248 9.88146 47.6884C9.88146 46.2492 10.4306 44.8046 11.5316 43.7031C12.6326 42.6071 14.0776 42.0591 15.5197 42.0563C16.9619 42.0563 18.4096 42.6043 19.5106 43.7031C20.6116 44.8046 21.1607 46.2465 21.158 47.6856C21.1607 49.122 20.6144 50.5694 19.5133 51.6654ZM28.0914 43.9328C29.1924 42.8313 30.6373 42.2833 32.0795 42.2833C33.5216 42.2833 34.9665 42.8313 36.0648 43.9328C37.1714 45.0315 37.7205 46.4679 37.7205 47.9126C37.7205 49.3517 37.1686 50.7936 36.0648 51.8896C34.9665 52.9856 33.5216 53.5363 32.0795 53.5391C30.6373 53.5391 29.1924 52.9856 28.0914 51.8896C26.9903 50.7909 26.4384 49.3489 26.4384 47.9126C26.4384 46.4706 26.9876 45.0287 28.0914 43.9328Z" fill="#0078AE"/>
<path d="M31.4139 69.7129V68.6585H31.0339V68.4149H32.0684V68.6585H31.6912V69.7129H31.4139Z" fill="#0078AE"/>
<path d="M33.3746 69.713V68.7775L33.0085 69.713H32.8893L32.5232 68.7775V69.713H32.2458V68.4177H32.6313L32.9475 69.2286L33.2637 68.4177H33.6519V69.713H33.3746Z" fill="#0078AE"/>
</svg>
